# xmcd
#
# Track frame offsets: 
#        150
#        18772
#        34085
#
# Disc length: 663 seconds
#
# Revision: 6
# Processed by: cddbd v1.5.2PL0 Copyright (c) Steve Scherf et al.
# Submitted via: ExactAudioCopy v1.3
#
DISCID=16029503
DTITLE=R.E.M. - Bad Day
DYEAR=2003
DGENRE=Rock
TTITLE0=Bad Day
TTITLE1=Out in the Country
TTITLE2=Adagio
EXTD=YEAR: 2003 ID3G: 17
EXTT0=radio edit\n
EXTT1=
EXTT2=
PLAYORDER=
